<svg width="758" height="514" viewBox="0 0 758 514" fill="none" xmlns="http://www.w3.org/2000/svg">
<path d="M169.8 37.8887C172.351 32.2802 173.626 27.8389 173.626 24.5648C173.626 10.998 162.902 0 149.672 0C136.443 0 125.719 10.998 125.719 24.5648C125.719 24.4562 125.72 24.3489 125.723 24.2429C125.451 34.5117 121.924 44.4286 115.653 52.5641C108.331 62.0613 104.67 70.8015 104.67 78.7848C104.67 82.1764 105.377 85.9727 106.791 90.1738C111.3 103.576 109.735 118.279 102.506 130.432C96.5441 140.453 93.5633 149.434 93.5633 157.374C93.5633 162.312 94.7682 168.015 97.178 174.482C102.222 188.018 100.969 203.097 93.7601 215.614C86.6254 228.004 83.058 238.901 83.058 248.306C83.058 286.034 112.882 316.619 149.672 316.619C186.463 316.619 216.287 286.034 216.287 248.306C216.287 238.901 212.72 228.004 205.585 215.614H205.585C198.376 203.097 197.123 188.018 202.167 174.482C204.577 168.015 205.782 162.312 205.782 157.374C205.782 149.348 202.739 140.278 196.655 130.165C189.368 118.054 187.728 103.367 192.164 89.9473C193.524 85.831 194.204 82.1101 194.204 78.7848C194.204 66.8948 186.069 53.2628 169.8 37.8887Z" fill="#A1CDFF"/>
<path d="M149.48 206.508V172.062L173.667 140.47C173.903 140.162 173.844 139.721 173.536 139.485C173.228 139.249 172.787 139.307 172.551 139.615L148.219 171.396C148.125 171.519 148.074 171.669 148.074 171.824V204.672L125.323 174.956C125.087 174.648 124.646 174.59 124.338 174.826C124.03 175.061 123.971 175.503 124.207 175.811L148.074 206.984V210.227C148.074 210.474 148.202 210.692 148.395 210.817V241.352L148.219 241.581C148.125 241.704 148.074 241.854 148.074 242.008V267.658L125.323 237.942C125.087 237.634 124.646 237.576 124.338 237.812C124.03 238.048 123.971 238.489 124.207 238.797L148.074 269.97V280.412C148.074 280.659 148.202 280.877 148.395 281.002V299.417C148.325 299.527 148.288 299.656 148.288 299.788V356.328C148.288 356.717 148.603 357.031 148.991 357.031C149.379 357.031 149.694 356.717 149.694 356.328V308.926C149.761 308.819 149.8 308.691 149.8 308.554V299.965L175.082 274.038C175.353 273.76 175.348 273.315 175.07 273.044C174.792 272.773 174.347 272.779 174.076 273.057L149.8 297.952V270.15C149.8 269.996 149.749 269.846 149.655 269.723L149.48 269.494V246.158C149.673 246.033 149.8 245.815 149.8 245.568V241.828L173.667 210.655C173.903 210.346 173.844 209.905 173.536 209.669C173.228 209.433 172.787 209.492 172.551 209.8L149.8 239.516V207.164C149.8 207.01 149.749 206.86 149.655 206.737L149.48 206.508Z" fill="#0B57B7"/>
<path d="M642.722 37.9324C645.273 32.3239 646.548 27.8826 646.548 24.6085C646.548 11.0417 635.824 0.0437012 622.595 0.0437012C609.365 0.0437012 598.641 11.0417 598.641 24.6085C598.641 24.4999 598.642 24.3926 598.645 24.2866C598.373 34.5554 594.846 44.4723 588.575 52.6078C581.253 62.105 577.592 70.8452 577.592 78.8285C577.592 82.2201 578.299 86.0164 579.713 90.2175C584.223 103.62 582.658 118.323 575.428 130.475C569.466 140.497 566.485 149.478 566.485 157.418C566.485 162.356 567.69 168.059 570.1 174.526C575.144 188.061 573.891 203.141 566.682 215.658C559.547 228.047 555.98 238.944 555.98 248.349C555.98 286.078 585.804 316.663 622.595 316.663C659.385 316.663 689.209 286.078 689.209 248.349C689.209 238.944 685.642 228.047 678.507 215.658H678.507C671.298 203.141 670.045 188.061 675.089 174.526C677.499 168.059 678.704 162.356 678.704 157.418C678.704 149.391 675.661 140.322 669.577 130.209C662.29 118.098 660.65 103.411 665.086 89.991C666.446 85.8747 667.126 82.1538 667.126 78.8285C667.126 66.9385 658.992 53.3065 642.722 37.9324Z" fill="#7CB9FF"/>
<path d="M622.401 206.551V172.104L646.589 140.513C646.825 140.204 646.766 139.763 646.458 139.527C646.15 139.291 645.709 139.35 645.473 139.658L621.141 171.439C621.047 171.562 620.996 171.712 620.996 171.866V204.715L598.245 174.999C598.009 174.691 597.568 174.632 597.26 174.868C596.951 175.104 596.893 175.545 597.129 175.854L620.996 207.027V210.27C620.996 210.517 621.123 210.735 621.316 210.86V241.395L621.141 241.624C621.047 241.746 620.996 241.897 620.996 242.051V267.701L598.245 237.985C598.009 237.677 597.568 237.618 597.26 237.854C596.951 238.09 596.893 238.531 597.129 238.84L620.996 270.013V280.455C620.996 280.702 621.123 280.919 621.316 281.045V299.459C621.247 299.57 621.21 299.699 621.21 299.831V356.371C621.21 356.759 621.524 357.074 621.912 357.074C622.301 357.074 622.615 356.759 622.615 356.371V308.969C622.683 308.861 622.722 308.734 622.722 308.597V300.008L648.004 274.081C648.275 273.803 648.269 273.358 647.991 273.087C647.714 272.816 647.269 272.821 646.998 273.099L622.722 297.995V270.193C622.722 270.039 622.671 269.889 622.577 269.766L622.401 269.537V246.201C622.594 246.075 622.722 245.858 622.722 245.611V241.871L646.589 210.697C646.825 210.389 646.766 209.948 646.458 209.712C646.15 209.476 645.709 209.535 645.473 209.843L622.722 239.559V207.207C622.722 207.053 622.671 206.903 622.577 206.78L622.401 206.551Z" fill="#0B57B7"/>
<path d="M533.098 330.472C498.667 330.472 470.755 301.848 470.755 266.538C470.755 231.228 498.667 44.2393 533.098 44.2393C567.53 44.2393 595.442 231.228 595.442 266.538C595.442 301.848 567.53 330.472 533.098 330.472Z" fill="#A1CDFF"/>
<path d="M532.907 246.622V219.375L557.095 187.783C557.331 187.475 557.272 187.034 556.964 186.798C556.656 186.562 556.214 186.62 555.979 186.928L531.647 218.709C531.553 218.832 531.502 218.982 531.502 219.137V244.786L508.751 215.071C508.515 214.762 508.074 214.704 507.766 214.94C507.457 215.176 507.399 215.617 507.635 215.925L531.502 247.098V257.54C531.502 257.787 531.629 258.005 531.822 258.13V277.505L508.751 247.371C508.515 247.063 508.074 247.004 507.766 247.24C507.457 247.476 507.399 247.917 507.635 248.225L531.822 279.817V308.845C531.753 308.956 531.716 309.084 531.716 309.217V365.757C531.716 366.145 532.03 366.46 532.418 366.46C532.806 366.46 533.121 366.145 533.121 365.757V318.355C533.189 318.247 533.228 318.119 533.228 317.983V309.394L558.51 283.466C558.781 283.188 558.775 282.743 558.497 282.472C558.219 282.202 557.774 282.207 557.504 282.485L533.228 307.38V279.579V247.279C533.228 247.124 533.177 246.974 533.083 246.851L532.907 246.622Z" fill="#0B57B7"/>
<path d="M522.497 384.762C527.744 370.646 535.427 363.588 545.545 363.588C560.723 363.588 553.406 341.365 569.146 341.365C579.392 341.365 579.392 353.734 594.067 346.052C609.198 338.131 594.067 315.694 622.736 313.07C651.406 310.447 644.257 346.052 656.062 346.052C664.564 346.052 665.112 332.534 672.364 331.436C679.617 330.338 680.609 339.306 686.043 338.182C692.664 336.812 690.165 325.437 706.308 325.437C722.45 325.437 716.96 347.41 720.895 349.822C724.83 352.235 729.89 344.178 735.324 353.734C740.758 363.291 731.344 367.788 739.259 367.788C748.902 367.788 754.223 373.446 755.223 384.762C754.512 388.226 747.879 390.165 735.324 390.577C716.49 391.195 715.642 385.882 692.274 386.829C668.905 387.777 661.188 400.321 627.628 400.321C594.067 400.321 603.782 394.365 578.16 392.076C552.538 389.787 532.904 394.521 518.198 393.575C510.143 393.057 511.576 390.12 522.497 384.762Z" fill="#C8E1FF"/>
<path d="M457.684 406.001C460.616 400.345 467.308 397.517 477.758 397.517C493.434 397.517 490.637 387.256 506.894 387.256C523.151 387.256 513.383 348.476 552.909 346.424C592.434 344.372 583.486 368.997 595.679 368.997C607.871 368.997 614.427 356.931 629.353 357.783C644.279 358.635 650.3 385.724 656.3 387.256C662.299 388.787 657.848 381.895 674.298 381.895C685.265 381.895 693.006 387.102 697.522 397.517C703.813 403.173 697.282 406.001 677.929 406.001C670.804 406.001 651.181 403.245 629.353 402.479C617.035 402.046 594.546 410.289 566.262 410.289C552.909 410.289 541.465 406.607 515.364 406.001C497.962 405.597 478.736 405.597 457.684 406.001Z" fill="#8ABFFF"/>
<path d="M19.981 384.762C25.2277 370.646 32.9102 363.588 43.0287 363.588C58.2064 363.588 50.8897 341.365 66.6296 341.365C76.8761 341.365 76.8761 353.734 91.5511 346.052C106.682 338.131 91.5511 315.694 120.22 313.07C148.889 310.447 141.741 346.052 153.546 346.052C162.048 346.052 162.595 332.534 169.848 331.436C177.1 330.338 178.093 339.306 183.527 338.182C190.147 336.812 187.649 325.437 203.791 325.437C219.934 325.437 214.444 347.41 218.379 349.822C222.314 352.235 227.373 344.178 232.807 353.734C238.241 363.291 228.828 367.788 236.742 367.788C246.386 367.788 251.707 373.446 252.706 384.762C251.996 388.226 245.363 390.165 232.807 390.577C213.974 391.195 213.126 385.882 189.757 386.829C166.389 387.777 158.672 400.321 125.112 400.321C91.5511 400.321 101.265 394.365 75.6434 392.076C50.0214 389.787 30.3876 394.521 15.6819 393.575C7.62708 393.057 9.0601 390.12 19.981 384.762Z" fill="#C8E1FF"/>
<path fill-rule="evenodd" clip-rule="evenodd" d="M118.323 499.979L94.5067 503.051V509.197L118.323 512.27L142.139 509.197V503.051L118.323 499.979Z" stroke="#5DA8FF" stroke-width="2" stroke-linecap="round" stroke-linejoin="round"/>
<path fill-rule="evenodd" clip-rule="evenodd" d="M640.92 499.979L617.104 503.052V509.198L640.92 512.271L664.736 509.198V503.052L640.92 499.979Z" stroke="#5DA8FF" stroke-width="2" stroke-linecap="round" stroke-linejoin="round"/>
<path fill-rule="evenodd" clip-rule="evenodd" d="M93.018 487.687L69.2021 490.76V496.906L93.018 499.979L116.834 496.906V490.76L93.018 487.687Z" stroke="#5DA8FF" stroke-width="2" stroke-linecap="round" stroke-linejoin="round"/>
<path fill-rule="evenodd" clip-rule="evenodd" d="M379.312 450.849L355.496 453.922V460.068L379.312 463.141L403.128 460.068V453.922L379.312 450.849Z" stroke="#5DA8FF" stroke-width="2" stroke-linecap="round" stroke-linejoin="round"/>
<path fill-rule="evenodd" clip-rule="evenodd" d="M67.5629 499.979L43.7469 503.051V509.197L67.5629 512.27L91.3789 509.197V503.051L67.5629 499.979Z" stroke="#5DA8FF" stroke-width="2" stroke-linecap="round" stroke-linejoin="round"/>
<path fill-rule="evenodd" clip-rule="evenodd" d="M353.857 463.141L330.041 466.214V472.36L353.857 475.433L377.673 472.36V466.214L353.857 463.141Z" stroke="#5DA8FF" stroke-width="2" stroke-linecap="round" stroke-linejoin="round"/>
<path d="M346.169 494.026C443.177 494.026 521.817 489.594 521.817 484.127C521.817 478.659 443.177 474.228 346.169 474.228C249.161 474.228 170.521 478.659 170.521 484.127C170.521 489.594 249.161 494.026 346.169 494.026Z" fill="#ABD2FF"/>
<path d="M9.25537 428.171H748.37" stroke="#0B57B7" stroke-width="2" stroke-linecap="round" stroke-linejoin="round"/>
<path d="M1 442.227H756.625" stroke="#0B57B7" stroke-width="2" stroke-linecap="round" stroke-linejoin="round"/>
<path d="M348.003 300.527C355.575 294.356 366.705 285.423 369.772 300.975C372.839 316.526 342.324 376.169 343.361 396.571C342.772 403.506 330.476 405.301 329.412 395.959C331.256 385.353 341.146 352.172 338.78 337.089C335.279 314.767 343.724 304.013 348.003 300.527Z" fill="#FFC0BF"/>
<path d="M373.566 299.096C373.566 312.854 364.324 351.316 354.591 370.78C352.483 374.997 349.12 371.16 348.969 372.186C348.644 374.384 348.969 373.24 347.915 378.862C346.86 384.485 334.22 386.447 333.156 377.105C333.635 374.351 334.476 371.569 335.265 368.321C335.548 367.154 331.399 366.915 331.399 363.401C331.399 354.666 336.795 346.103 335.265 336.344C333.042 322.174 339.149 313.41 342.433 307.463C319.769 306.915 285.98 303.488 271.502 291.91C254.808 278.56 265.989 262.662 287.364 262.42C308.739 262.178 342.542 267.816 358.808 280.824C367.085 287.443 373.566 292.965 373.566 299.096Z" fill="url(#paint0_linear)"/>
<path d="M291.203 293.812C290.822 293.736 290.575 293.366 290.651 292.985C290.728 292.604 291.098 292.358 291.478 292.434C318.35 297.808 334.163 300.502 338.779 300.502C343.093 300.502 346.547 301.487 348.408 303.695C350.742 306.463 350.303 310.773 346.761 316.676C344.465 320.503 342.882 325.583 341.839 331.81C341.353 334.714 340.996 337.775 340.713 341.214C340.604 342.54 340.509 343.871 340.406 345.468C340.371 346.006 340.214 348.536 340.172 349.177C339.955 352.474 339.775 354.018 339.431 354.878C337.961 358.553 336.739 366.005 337.346 368.128C337.453 368.501 337.237 368.89 336.863 368.997C336.49 369.103 336.101 368.887 335.995 368.514C335.283 366.025 336.551 358.294 338.126 354.356C338.389 353.7 338.566 352.178 338.769 349.085C338.811 348.447 338.968 345.919 339.003 345.378C339.106 343.773 339.202 342.434 339.312 341.099C339.598 337.623 339.959 334.525 340.453 331.578C341.522 325.192 343.154 319.956 345.555 315.953C348.823 310.507 349.199 306.814 347.334 304.601C345.805 302.788 342.718 301.908 338.779 301.908C334.024 301.908 318.211 299.214 291.203 293.812Z" fill="#5296FC"/>
<path d="M334.694 372.9C334.3 372.584 334.236 372.009 334.552 371.615C334.867 371.221 335.442 371.157 335.836 371.473C340.309 375.051 343.901 376.358 346.592 375.53C347.075 375.381 347.586 375.652 347.734 376.134C347.883 376.616 347.612 377.128 347.13 377.276C343.73 378.322 339.591 376.817 334.694 372.9Z" fill="#C3CBFF"/>
<path d="M333.947 377.078C333.574 376.739 333.547 376.161 333.886 375.788C334.226 375.415 334.804 375.388 335.177 375.727C339.072 379.273 342.171 380.555 344.45 379.757C344.927 379.591 345.448 379.841 345.615 380.318C345.781 380.794 345.53 381.315 345.054 381.482C341.981 382.558 338.286 381.029 333.947 377.078Z" fill="#C3CBFF"/>
<path d="M333.495 405.202C327.864 404.271 326.433 397.758 330.555 390.229C331.597 388.326 334.411 392.652 337.663 392.525C339.663 392.446 342.678 388.275 345.097 388.639C354.314 390.026 364.368 393.194 368.588 394.912C375.718 397.814 376.369 399.863 372.393 403.019C368.416 406.175 339.126 406.133 333.495 405.202Z" fill="#253238"/>
<path d="M348.599 393.094C348.362 393.54 347.809 393.709 347.363 393.472C346.918 393.235 346.749 392.682 346.986 392.237L349.601 387.317C349.838 386.871 350.391 386.702 350.836 386.939C351.282 387.176 351.451 387.729 351.214 388.175L348.599 393.094Z" fill="#6F787C"/>
<path d="M352.245 394.402C352.008 394.847 351.455 395.016 351.009 394.78C350.564 394.543 350.395 393.99 350.632 393.544L353.247 388.624C353.484 388.179 354.037 388.01 354.482 388.246C354.928 388.483 355.097 389.037 354.86 389.482L352.245 394.402Z" fill="#6F787C"/>
<path d="M355.863 395.76C355.626 396.206 355.073 396.375 354.627 396.138C354.181 395.901 354.012 395.348 354.249 394.903L356.865 389.983C357.101 389.537 357.655 389.368 358.1 389.605C358.546 389.842 358.715 390.395 358.478 390.841L355.863 395.76Z" fill="#6F787C"/>
<path d="M329.142 400.25C328.776 399.902 328.762 399.324 329.11 398.958C329.457 398.592 330.036 398.578 330.401 398.926C332.617 401.034 334.691 402.088 336.619 402.142C342.144 402.298 362.476 402.058 365.844 401.619C368.036 401.333 369.783 400.891 370.892 400.316C371.933 399.776 372.239 399.269 372.016 398.625C371.851 398.148 372.103 397.627 372.58 397.462C373.056 397.297 373.577 397.549 373.742 398.026C374.312 399.67 373.494 401.025 371.733 401.938C370.396 402.632 368.465 403.12 366.08 403.431C362.585 403.886 342.188 404.127 336.568 403.969C334.131 403.9 331.657 402.643 329.142 400.25Z" fill="#6F787C"/>
<path fill-rule="evenodd" clip-rule="evenodd" d="M281.502 300.259L283.791 314.319L279.223 315.725L275.79 301.137C267.84 301.624 259.57 299.385 255.301 296.539C248.976 292.322 239.488 296.188 237.732 293.377C220.807 266.297 298.171 275.881 301.334 283.538C304.496 291.195 296.414 292.952 286.575 298.296C285 299.152 283.29 299.797 281.502 300.259Z" fill="#363843"/>
<path fill-rule="evenodd" clip-rule="evenodd" d="M416.732 267.725H475.01C478.891 267.725 482.038 270.872 482.038 274.753C482.038 275.508 481.916 276.259 481.677 276.975L471.891 306.335C470.966 309.11 468.419 311.021 465.496 311.135L427.272 312.616C425.958 312.667 424.784 311.8 424.446 310.529L414.015 271.258C413.616 269.757 414.51 268.218 416.01 267.819C416.246 267.757 416.488 267.725 416.732 267.725V267.725Z" fill="#FFA82E"/>
<path fill-rule="evenodd" clip-rule="evenodd" d="M436.971 325.353C441.539 321.137 448.434 317.582 452.433 320.082C456.431 322.583 457.467 329.615 454.19 332.733C450.912 335.85 442.945 333.084 438.026 333.787C433.106 334.49 432.403 329.57 436.971 325.353Z" fill="#F6BC57"/>
<path fill-rule="evenodd" clip-rule="evenodd" d="M432.631 347.626L430.77 343.842C437.408 340.576 440.101 337.017 439.458 333.071L443.62 332.394C444.618 338.521 440.752 343.63 432.631 347.626Z" fill="#EC961F"/>
<path d="M314.943 391.519V385.897C338.856 385.897 362.279 373.346 380.247 352.068C395.603 333.885 405.478 310.99 407.567 288.738C407.842 285.811 413.471 285.834 413.21 288.769C411.111 312.35 400.735 336.522 384.543 355.696C365.571 378.161 340.642 391.519 314.943 391.519Z" fill="url(#paint1_linear)"/>
<path d="M468.57 481.81C434.222 481.81 406.378 453.966 406.378 419.618C406.378 385.271 434.222 357.427 468.57 357.427C502.917 357.427 530.761 385.271 530.761 419.618C530.761 453.966 502.917 481.81 468.57 481.81ZM468.57 471.268C497.095 471.268 520.219 448.144 520.219 419.618C520.219 391.093 497.095 367.968 468.57 367.968C440.044 367.968 416.92 391.093 416.92 419.618C416.92 448.144 440.044 471.268 468.57 471.268Z" fill="#24262D"/>
<path d="M240.228 481.81C205.881 481.81 178.037 453.966 178.037 419.618C178.037 385.271 205.881 357.427 240.228 357.427C274.576 357.427 302.42 385.271 302.42 419.618C302.42 453.966 274.576 481.81 240.228 481.81ZM240.228 471.268C268.754 471.268 291.878 448.144 291.878 419.618C291.878 391.093 268.754 367.968 240.228 367.968C211.703 367.968 188.578 391.093 188.578 419.618C188.578 448.144 211.703 471.268 240.228 471.268Z" fill="#24262D"/>
<path d="M308.513 419.618H298.674C298.674 386.785 272.058 360.168 239.224 360.168C211.715 360.168 187.983 379.01 181.496 405.35L171.943 402.997C179.506 372.286 207.161 350.329 239.224 350.329C277.492 350.329 308.513 381.351 308.513 419.618Z" fill="url(#paint2_linear)"/>
<path d="M378.879 367.431L374.63 363.182L378.109 359.703L382.531 364.125L421.258 329.07C416.637 315.721 411.958 301.95 407.221 287.758L405.769 288.374L404.396 285.139L413.453 281.295L414.826 284.53L413.75 284.986C423.757 318.98 434.777 350.825 446.81 380.522C458.406 408.059 470.354 417.418 468.245 419.175C466.137 420.932 451.958 408.059 440.837 384.036C435.235 368.78 429.542 352.858 423.759 336.268L334.716 416.716L334.505 416.523C334.224 417.527 333.677 418.42 332.946 419.123V420.581L330.142 420.609C329.756 420.69 329.356 420.733 328.945 420.733C328.575 420.733 328.213 420.698 327.862 420.632L242.291 421.486C241.431 422.219 240.316 422.662 239.098 422.662C236.469 422.662 234.322 420.601 234.185 418.006L183.404 385.239L184.671 381.225L235.744 414.143C236.308 413.618 236.996 413.223 237.759 413.008L278.697 318.697L277.767 319.091L276.394 315.857L285.451 312.012L286.824 315.247L285.477 315.818L330.988 409.556C331.296 409.673 331.592 409.815 331.873 409.981L378.879 367.431ZM323.403 416.586C323.252 416.07 323.171 415.524 323.171 414.959C323.171 413.689 323.581 412.515 324.275 411.562L281.891 324.613L242.802 414.506C243.496 415.299 243.939 416.317 244.008 417.437L323.403 416.586Z" fill="url(#paint3_linear)"/>
<path d="M468.57 424.889C471.481 424.889 473.841 422.529 473.841 419.618C473.841 416.707 471.481 414.347 468.57 414.347C465.659 414.347 463.299 416.707 463.299 419.618C463.299 422.529 465.659 424.889 468.57 424.889Z" fill="#F95B03"/>
<path d="M245.993 422.694L287.423 423.333C287.444 423.333 287.466 423.333 287.488 423.333C289.835 423.333 291.737 421.431 291.737 419.084C291.737 419.073 291.737 419.062 291.737 419.051C291.718 416.687 289.787 414.785 287.422 414.803L246.899 415.115C248.911 410.404 253.512 407.051 258.945 406.872L334.237 404.395C344.07 404.072 352.304 411.781 352.627 421.614C352.634 421.809 352.637 422.005 352.637 422.2C352.637 431.721 344.919 439.439 335.398 439.439C335.021 439.439 334.643 439.426 334.267 439.401L258.924 434.445C252.312 434.01 247.019 429.043 245.993 422.694Z" fill="url(#paint4_linear)"/>
<path d="M335.726 433.258C341.992 433.258 347.071 428.178 347.071 421.912C347.071 415.647 341.992 410.567 335.726 410.567C329.46 410.567 324.381 415.647 324.381 421.912C324.381 428.178 329.46 433.258 335.726 433.258Z" stroke="white" stroke-width="2"/>
<path d="M337.879 424.798C337.879 423.439 336.777 422.338 335.419 422.338C334.06 422.338 332.959 423.439 332.959 424.798V450.098C332.959 451.456 334.06 452.558 335.419 452.558C336.777 452.558 337.879 451.456 337.879 450.098V424.798Z" fill="#253238"/>
<path d="M342.798 449.747H327.337V456.072H342.798V449.747Z" fill="#F95B03"/>
<path d="M510.622 364.607L504.634 372.414C494.336 364.516 481.749 360.168 468.489 360.168C435.656 360.168 409.039 386.785 409.039 419.618C409.039 426.192 410.104 432.614 412.168 438.705L402.849 441.862C400.442 434.757 399.2 427.269 399.2 419.618C399.2 381.351 430.222 350.329 468.489 350.329C483.934 350.329 498.62 355.402 510.622 364.607Z" fill="url(#paint5_linear)"/>
<path d="M401.282 256.511C401.696 256.798 401.799 257.368 401.512 257.782C401.224 258.197 400.655 258.3 400.241 258.012L381.322 244.895C380.908 244.608 380.805 244.038 381.092 243.624C381.38 243.209 381.949 243.106 382.363 243.393L401.282 256.511Z" fill="#DE1818"/>
<path d="M408.019 253.375C408.17 253.857 407.903 254.369 407.421 254.52C406.94 254.671 406.427 254.404 406.276 253.922L400.77 236.372C400.619 235.89 400.887 235.378 401.368 235.227C401.85 235.076 402.362 235.344 402.513 235.825L408.019 253.375Z" fill="#DE1818"/>
<path d="M416.784 253.811C416.628 254.291 416.112 254.553 415.633 254.397C415.153 254.241 414.89 253.726 415.046 253.246L419.614 239.19C419.77 238.71 420.286 238.448 420.765 238.604C421.245 238.76 421.508 239.275 421.352 239.755L416.784 253.811Z" fill="#DE1818"/>
<path d="M423.408 257.828C422.974 258.085 422.413 257.941 422.156 257.507C421.899 257.073 422.043 256.512 422.477 256.255L443.747 243.669C444.181 243.412 444.741 243.555 444.998 243.99C445.255 244.424 445.112 244.984 444.677 245.241L423.408 257.828Z" fill="#DE1818"/>
<path d="M261.358 372.384C268.122 365.337 278.08 355.114 283.02 370.176C287.96 385.238 264.94 448.155 268.456 468.278C268.717 475.233 256.731 478.514 254.537 469.371C255.074 458.619 260.846 424.48 256.66 409.798C250.465 388.07 257.536 376.367 261.358 372.384Z" fill="#FFC0BF"/>
<path d="M250.929 478.553C246.109 475.496 247.337 468.942 254.074 463.622C255.776 462.277 256.676 467.359 259.719 468.512C261.591 469.222 265.996 466.56 268.08 467.841C276.022 472.718 284.04 479.563 287.253 482.793C292.682 488.25 292.481 490.391 287.588 491.742C282.694 493.094 255.748 481.611 250.929 478.553Z" fill="#253238"/>
<path d="M269.563 473.309C269.171 473.627 268.596 473.566 268.278 473.174C267.961 472.782 268.021 472.207 268.413 471.889L272.743 468.383C273.135 468.065 273.71 468.125 274.028 468.518C274.345 468.91 274.285 469.485 273.893 469.803L269.563 473.309Z" fill="#6F787C"/>
<path d="M272.409 475.937C272.016 476.255 271.441 476.195 271.124 475.802C270.806 475.41 270.866 474.835 271.259 474.517L275.588 471.011C275.98 470.693 276.556 470.754 276.873 471.146C277.191 471.538 277.13 472.113 276.738 472.431L272.409 475.937Z" fill="#6F787C"/>
<path d="M275.208 478.602C274.816 478.919 274.24 478.859 273.923 478.467C273.605 478.074 273.666 477.499 274.058 477.182L278.387 473.675C278.78 473.357 279.355 473.418 279.672 473.81C279.99 474.202 279.93 474.777 279.537 475.095L275.208 478.602Z" fill="#6F787C"/>
<path d="M248.857 472.293C248.656 471.83 248.869 471.293 249.332 471.092C249.795 470.891 250.333 471.104 250.534 471.567C251.75 474.373 253.247 476.154 255 476.957C260.026 479.259 278.835 486.982 282.106 487.894C284.236 488.488 286.016 488.764 287.262 488.668C288.431 488.577 288.912 488.23 288.958 487.55C288.992 487.047 289.427 486.666 289.931 486.7C290.434 486.734 290.815 487.17 290.781 487.673C290.663 489.409 289.38 490.337 287.403 490.489C285.901 490.605 283.933 490.3 281.616 489.654C278.221 488.708 259.351 480.96 254.239 478.618C252.023 477.603 250.237 475.479 248.857 472.293Z" fill="#6F787C"/>
<path d="M276.848 290.328C284.036 310.46 286.205 351.57 289.017 364.923C291.828 378.276 281.286 433.72 279.529 436.531C277.772 439.342 270.845 441.316 270.744 443.283C270.601 446.076 270.351 448.062 270.744 450.311C271.005 457.266 257.417 456.643 255.222 447.5C255.397 444.013 256.049 440.367 256.709 436.531C256.963 435.057 255.222 436.531 252.823 432.39C250.424 428.249 253.738 416.407 252.823 405.684C251.024 384.601 252.963 375.276 256.709 369.842C253.045 365.766 240.173 323.81 236.139 298.509C233.642 282.852 222.252 275.669 236.139 251.721C240.727 243.808 280.648 238.196 287.639 247.469C294.631 256.742 304.11 267.986 303.064 267.986C302.687 267.986 293.486 274.91 283.791 280.937C280.693 282.863 277.52 283.798 274.601 285.556C275.56 287.304 276.108 288.255 276.848 290.328Z" fill="url(#paint6_linear)"/>
<path d="M275.675 286.392C275.214 286.597 274.674 286.389 274.469 285.928C274.264 285.467 274.472 284.927 274.933 284.722C281.123 281.971 285.107 279.353 286.864 276.938C287.16 276.53 287.732 276.44 288.14 276.736C288.548 277.033 288.638 277.605 288.341 278.013C286.35 280.751 282.135 283.521 275.675 286.392Z" fill="#5296FC"/>
<path d="M241.22 271.194C241.196 270.807 241.49 270.473 241.877 270.449C242.265 270.424 242.599 270.719 242.623 271.106C244.727 304.534 248.465 327.782 253.816 340.81C262.411 361.737 266.327 392.52 261.929 409.773C261.387 411.9 257.614 425.852 257.15 428.226C256.431 431.905 256.706 433.528 258.173 434.702C258.476 434.944 258.526 435.387 258.283 435.69C258.041 435.993 257.598 436.042 257.295 435.799C255.322 434.221 254.962 432.094 255.771 427.956C256.246 425.525 260.038 411.501 260.567 409.425C264.882 392.496 261.005 362.012 252.516 341.344C247.091 328.136 243.333 304.765 241.22 271.194Z" fill="#5296FC"/>
<path d="M256.132 441.954C255.728 441.652 255.646 441.079 255.949 440.675C256.252 440.272 256.824 440.19 257.228 440.493C262.159 444.191 266.2 445.392 269.367 444.231C269.841 444.057 270.365 444.301 270.539 444.774C270.713 445.248 270.47 445.773 269.996 445.947C266.135 447.362 261.508 445.986 256.132 441.954Z" fill="#C3CBFF"/>
<path d="M256.132 446.874C255.728 446.571 255.646 445.998 255.949 445.594C256.252 445.191 256.824 445.109 257.228 445.412C262.159 449.11 266.2 450.312 269.367 449.15C269.841 448.977 270.365 449.22 270.539 449.693C270.713 450.167 270.47 450.692 269.996 450.866C266.135 452.281 261.508 450.906 256.132 446.874Z" fill="#C3CBFF"/>
<path d="M272.701 281.335C272.51 280.868 272.733 280.335 273.201 280.144C273.668 279.953 274.201 280.176 274.392 280.643C276.511 285.824 278.162 290.421 279.342 294.436C279.485 294.92 279.208 295.428 278.724 295.57C278.24 295.713 277.732 295.436 277.589 294.951C276.428 291.001 274.798 286.462 272.701 281.335Z" fill="#5296FC"/>
<path d="M377.322 169.028C360.666 191.208 349.824 204.027 344.797 207.486C343.084 208.664 341.517 209.465 340.117 209.903C338.892 210.723 337.089 211.392 334.654 211.886C324.693 213.908 287.568 193.571 283.077 189.25C278.587 184.93 276.481 178.22 286.439 176.198C295.511 174.357 323.158 189.261 333.785 196.687C339.843 185.888 366.771 165.398 374.636 159.448C375.25 157.074 376.609 154.904 378.484 153.639C379.841 152.724 380.459 155.52 381.786 154.759C383.522 153.764 387.695 152.418 389.531 155.14C392.323 159.28 391.848 167.143 387.888 169.814C384.61 172.025 380.295 171.591 377.322 169.028Z" fill="#FFC0BF"/>
<path d="M283.077 189.25C278.586 184.93 276.481 178.219 286.439 176.198C292.378 174.993 306.279 180.964 318.153 187.316C326.187 191.614 318.273 212.131 308.335 207.546C295.977 201.845 285.566 191.645 283.077 189.25Z" fill="#5296FB"/>
<path d="M330.121 201.221C330.121 199.978 330.933 198.678 332.557 197.32" stroke="#FF7371" stroke-width="2" stroke-linecap="round" stroke-linejoin="round"/>
<path d="M250.686 166.238C260.758 157.448 289.016 171.124 297.066 182.632C299.974 186.789 295.604 190.582 294.923 199.013C294.387 205.652 298.915 216.338 292.106 224.336C285.463 232.139 284.91 249.162 288.286 259.85C288.449 260.366 248.779 266.652 237.432 251.459C233.318 245.95 251.701 242.74 244.793 219.237C238.471 197.73 237.494 177.751 250.686 166.238Z" fill="#FFC0BF"/>
<path d="M250.003 165.379C252.643 163.075 257.151 162.931 261.599 163.271C266.696 163.66 264.489 188.082 281.285 190.147C299.651 192.404 280.861 169.556 284.726 171.665C288.591 173.773 296.338 179.674 298.144 181.895C300.676 185.009 295.645 193.43 296.582 195.87C299.856 204.396 303.747 210.494 291.729 224.611C286.269 231.025 287.902 244.443 294.63 250.768C295.769 251.839 295.769 258.147 286.197 263.067C276.624 267.986 248.402 266.926 237.055 251.733C232.941 246.225 248.261 237.051 241.353 213.549C235.032 192.042 236.81 176.893 250.003 165.379Z" fill="#2A89FF"/>
<path d="M284.342 201.017C283.844 200.934 283.509 200.462 283.593 199.965C283.676 199.467 284.148 199.132 284.645 199.216C290.55 200.21 293.667 198.854 294.818 195.735C295.698 193.35 295.425 190.097 294.408 186.439C294.273 185.953 294.558 185.449 295.044 185.314C295.53 185.179 296.033 185.464 296.169 185.95C297.28 189.949 297.58 193.526 296.532 196.368C295.042 200.404 291.041 202.145 284.342 201.017Z" fill="#1D5EF8"/>
<path d="M273.575 147.196L289.673 151.51C284.907 163.539 282.533 172.4 282.55 178.093C282.576 186.631 268.555 181.019 266.452 173.779C265.05 168.952 267.424 160.091 273.575 147.196Z" fill="#FFC0BF"/>
<path d="M292.304 170.769C286.506 169.216 266.796 140.257 270.041 128.148C273.286 116.039 285.5 108.791 297.323 111.959C309.146 115.126 316.1 127.511 312.855 139.62C309.611 151.729 298.102 172.323 292.304 170.769Z" fill="#FFC0BF"/>
<path d="M275.12 138.242C275.176 137.858 275.532 137.591 275.916 137.646C276.3 137.702 276.567 138.058 276.512 138.442C275.965 142.244 276.892 143.934 279.309 143.984C279.816 143.995 280.145 144.522 279.932 144.983C279.144 146.684 278.702 148.026 278.602 148.988C278.562 149.374 278.216 149.654 277.83 149.614C277.444 149.574 277.164 149.228 277.204 148.842C277.303 147.89 277.656 146.708 278.26 145.284C275.588 144.758 274.537 142.298 275.12 138.242Z" fill="#FF7371"/>
<path fill-rule="evenodd" clip-rule="evenodd" d="M294.3 139.032L300.092 137.338C300.595 137.191 301.122 137.48 301.269 137.982C301.285 138.037 301.296 138.093 301.302 138.149C301.367 138.774 300.915 139.333 300.29 139.398L294.411 140.016C294.161 140.043 293.937 139.862 293.911 139.612C293.884 139.35 294.047 139.106 294.3 139.032Z" fill="#253238"/>
<path fill-rule="evenodd" clip-rule="evenodd" d="M313.936 143.141L309.467 140.684C309.018 140.436 308.453 140.6 308.206 141.05C308.175 141.106 308.15 141.165 308.132 141.226C307.947 141.829 308.287 142.468 308.891 142.653L313.632 144.102C313.873 144.176 314.129 144.04 314.203 143.799C314.28 143.544 314.169 143.27 313.936 143.141Z" fill="#253238"/>
<path d="M299.28 144.033C299.458 143.366 299.063 142.68 298.395 142.501C297.728 142.323 297.043 142.719 296.864 143.386L296.429 145.01C296.25 145.677 296.646 146.363 297.313 146.542C297.98 146.72 298.666 146.325 298.844 145.657L299.28 144.033Z" fill="#1C2229"/>
<path d="M308.105 146.907C308.284 146.24 307.888 145.554 307.221 145.376C306.554 145.197 305.868 145.593 305.689 146.26L305.254 147.884C305.075 148.551 305.471 149.237 306.138 149.416C306.805 149.595 307.491 149.199 307.67 148.532L308.105 146.907Z" fill="#1C2229"/>
<path d="M300.288 153.349C298.865 151.66 299.387 148.335 301.653 143.26C301.812 142.905 302.227 142.746 302.582 142.904C302.936 143.063 303.095 143.478 302.937 143.833C300.886 148.427 300.429 151.335 301.363 152.443C302.457 153.741 303.498 154.508 304.467 154.768C305.015 154.915 305.172 155.617 304.738 155.984C302.857 157.572 301.134 158.467 299.551 158.644C299.165 158.688 298.817 158.41 298.774 158.024C298.731 157.639 299.008 157.291 299.394 157.248C300.424 157.132 301.6 156.599 302.913 155.636C302.033 155.148 301.16 154.383 300.288 153.349Z" fill="#FF7371"/>
<path d="M285.88 164.2C286.147 164.482 286.135 164.927 285.853 165.194C285.571 165.46 285.126 165.448 284.859 165.166C282.525 162.699 280.956 160.611 280.152 158.88C279.989 158.528 280.141 158.11 280.493 157.947C280.845 157.783 281.263 157.936 281.427 158.288C282.155 159.855 283.641 161.833 285.88 164.2Z" fill="#FF7371"/>
<path d="M290.93 158.888C290.542 158.909 290.21 158.612 290.189 158.225C290.167 157.837 290.464 157.506 290.852 157.484C295.481 157.227 297.673 158.98 296.846 162.561C296.759 162.939 296.382 163.175 296.004 163.087C295.625 163 295.39 162.623 295.477 162.245C296.056 159.734 294.734 158.676 290.93 158.888Z" fill="#FF7371"/>
<path d="M244.661 99.7482C254.126 93.0482 269.056 107.398 278.877 111.558C283.792 107.798 291.233 107.357 302.958 114.578C313.849 121.286 325.271 117.31 321.415 131.703C317.558 146.096 309.509 135.55 309.113 132.196C306.867 136.041 299.726 138.934 288.471 139.656C287.849 139.696 286.325 144.764 284.875 144.376C283.426 143.988 283.873 140.86 284.093 139.565C284.313 138.271 282.373 133.421 279.619 134.036C276.865 134.651 274.91 137.189 275.026 139.656C275.743 146.491 274.104 151.774 272.641 151.382C267.809 150.088 268.326 134.549 269.985 128.359C270.604 126.045 271.338 123.587 272.281 121.224C265.728 122.905 262.334 125.357 262.099 128.581C261.713 133.89 252.923 156.057 240.209 161.959C226.902 168.137 202.714 155.973 214.601 155.098C226.487 154.223 230.992 131.613 239.043 108.33C240.045 105.434 241.246 103.249 242.604 101.653C240.719 102.67 238.159 106.655 235.085 113.93C234.889 114.394 234.353 114.612 233.888 114.416C233.423 114.219 233.205 113.683 233.402 113.218C237.723 102.993 241.369 98.2921 244.661 99.7482Z" fill="#253238"/>
<path d="M337.405 171.987C317.824 191.634 305.303 202.819 299.843 205.545C299.149 205.891 298.483 206.189 297.844 206.437C296.82 207.852 294.574 208.935 290.94 209.607C280.945 211.455 244.181 190.473 239.766 186.075C235.352 181.677 238.263 169.287 248.254 167.44C257.227 165.781 280.011 185.256 290.018 193.9C296.756 184.133 327.289 167.021 336.078 162.127C337.016 159.862 338.664 157.902 340.697 156.91C342.167 156.193 342.39 159.048 343.811 158.479C345.669 157.735 349.988 156.983 351.427 159.934C353.616 164.422 352.052 172.143 347.758 174.237C344.204 175.97 339.992 174.939 337.405 171.987Z" fill="#FFC0BF"/>
<path d="M239.461 187.166C232.832 176.91 241.218 165.028 250.706 165.028C260.194 165.028 278.466 183.845 278.466 185.409C278.466 186.972 274.65 202.269 265.113 204.032C255.118 205.88 246.091 197.421 239.461 187.166Z" fill="#2A89FF"/>
<path d="M279.692 187.459C279.328 187.325 279.141 186.921 279.275 186.557C279.409 186.192 279.813 186.005 280.177 186.139C282.627 187.04 286.06 189.427 290.523 193.312C291.067 193.785 290.631 194.673 289.924 194.531C289.234 194.393 288.684 195.022 288.288 196.806C288.204 197.185 287.828 197.424 287.449 197.339C287.07 197.255 286.832 196.88 286.916 196.501C287.247 195.01 287.785 193.965 288.532 193.455C284.71 190.217 281.751 188.215 279.692 187.459Z" fill="#FF7371"/>
<path d="M270.632 198.683C270.87 198.238 271.423 198.07 271.868 198.307C272.314 198.545 272.482 199.098 272.245 199.543C270.229 203.323 267.991 205.298 265.465 205.298C261.391 205.298 251.219 200.21 248.54 196.192C248.131 195.578 247.764 195.167 247.465 194.961C247.289 194.84 247.22 194.827 247.177 194.844C246.85 194.974 246.375 195.882 245.973 197.569C245.855 198.059 245.363 198.362 244.872 198.245C244.381 198.128 244.078 197.635 244.195 197.144C245.295 192.537 247.672 191.595 250.061 195.178C252.39 198.672 261.984 203.471 265.465 203.471C267.155 203.471 268.9 201.931 270.632 198.683Z" fill="#1D5EF8"/>
<path d="M399.368 161.07L403.634 164.223C404.57 164.915 404.768 166.235 404.076 167.171C403.384 168.108 402.064 168.306 401.128 167.614L394.165 162.468C386.544 164.404 378.707 165.918 374.972 165.918C371.807 165.918 368.145 164.134 363.155 160.692C362.209 160.039 361.224 159.333 360.064 158.482C351.937 152.517 350.964 151.863 350.023 151.863C348.547 151.863 347.113 153.972 346.117 158.953C345.888 160.094 344.778 160.835 343.636 160.606C342.494 160.378 341.754 159.267 341.982 158.126C343.329 151.393 345.877 147.646 350.023 147.646C351.573 147.646 353.297 148.492 355.839 150.201C356.749 150.813 357.743 151.523 359.075 152.504C359.478 152.801 361.857 154.567 362.559 155.082C363.689 155.912 364.642 156.595 365.55 157.221C369.844 160.183 372.96 161.702 374.972 161.702C378.261 161.702 385.635 160.246 392.803 158.458C393.356 157.9 394.168 157.705 394.901 157.923C400.866 156.372 406.389 154.662 408.908 153.464C408.777 153.372 408.633 153.275 408.478 153.175C406.884 152.152 404.333 150.943 401.354 149.787C395.716 147.599 389.55 146.09 388.83 146.41C387.413 147.04 385.819 149.527 384.351 153.924C383.982 155.029 382.788 155.625 381.684 155.257C380.579 154.888 379.983 153.694 380.351 152.589C382.163 147.162 384.317 143.801 387.117 142.557C389.381 141.55 395.888 143.143 402.88 145.856C406.099 147.105 408.885 148.425 410.757 149.627C411.904 150.364 412.743 151.071 413.271 151.827C414.192 153.145 414.188 154.769 412.918 155.898C411.409 157.239 405.872 159.221 399.368 161.07Z" fill="#253238"/>
<defs>
<linearGradient id="paint0_linear" x1="318.506" y1="262.413" x2="318.506" y2="383.596" gradientUnits="userSpaceOnUse">
<stop stop-color="#0C64D3"/>
<stop offset="1" stop-color="#2A89FF"/>
</linearGradient>
<linearGradient id="paint1_linear" x1="314.943" y1="339.037" x2="413.219" y2="339.037" gradientUnits="userSpaceOnUse">
<stop stop-color="#FFA82E"/>
<stop offset="1" stop-color="#FF7100"/>
</linearGradient>
<linearGradient id="paint2_linear" x1="171.943" y1="384.974" x2="308.513" y2="384.974" gradientUnits="userSpaceOnUse">
<stop stop-color="#FFA82E"/>
<stop offset="1" stop-color="#FF7100"/>
</linearGradient>
<linearGradient id="paint3_linear" x1="183.404" y1="351.979" x2="468.489" y2="351.979" gradientUnits="userSpaceOnUse">
<stop stop-color="#FFA82E"/>
<stop offset="1" stop-color="#FF7100"/>
</linearGradient>
<linearGradient id="paint4_linear" x1="245.993" y1="421.912" x2="352.637" y2="421.912" gradientUnits="userSpaceOnUse">
<stop stop-color="#FFA82E"/>
<stop offset="1" stop-color="#FF7100"/>
</linearGradient>
<linearGradient id="paint5_linear" x1="399.2" y1="396.096" x2="510.622" y2="396.096" gradientUnits="userSpaceOnUse">
<stop stop-color="#FFA82E"/>
<stop offset="1" stop-color="#FF7100"/>
</linearGradient>
<linearGradient id="paint6_linear" x1="266.259" y1="242.652" x2="266.259" y2="455.011" gradientUnits="userSpaceOnUse">
<stop stop-color="#0C64D3"/>
<stop offset="1" stop-color="#2A89FF"/>
</linearGradient>
</defs>
</svg>
